# xmcd
#
# Track frame offsets:
#	150
#	18388
#	38759
#	57457
#	73813
#
# Disc length: 1152 seconds
#
# Revision: 2
# Processed by: cddbd v1.5.2PL0 Copyright (c) Steve Scherf et al.
# Submitted via: audiograbber 1.83.01
#
DISCID=41047e05
DTITLE=Kool Savas - Tot oder Lebendig
DYEAR=2007
DGENRE=Rap
TTITLE0=Tot oder Lebendig
TTITLE1=Tot oder Lebendig Remix
TTITLE2=Alle schieben Optik
TTITLE3=Der Beweis
TTITLE4=Absturz
EXTD=
EXTT0=
EXTT1=
EXTT2=
EXTT3=
EXTT4=
PLAYORDER=
